<?xml version="1.0" encoding="UTF-8"?>
<svg version="1.1" xmlns="http://www.w3.org/2000/svg" width="192" height="192">
<path d="M0 0 C63.36 0 126.72 0 192 0 C192 63.36 192 126.72 192 192 C128.64 192 65.28 192 0 192 C0 128.64 0 65.28 0 0 Z " fill="#DDAF5B" transform="translate(0,0)"/>
<path d="M0 0 C31.68 0 63.36 0 96 0 C96 63.36 96 126.72 96 192 C64.32 192 32.64 192 0 192 C0 128.64 0 65.28 0 0 Z " fill="#AD452D" transform="translate(0,0)"/>
<path d="M0 0 C31.68 0 63.36 0 96 0 C96 31.68 96 63.36 96 96 C64.32 96 32.64 96 0 96 C0 64.32 0 32.64 0 0 Z " fill="#23547C" transform="translate(96,0)"/>
<path d="M0 0 C31.68 0 63.36 0 96 0 C96 31.68 96 63.36 96 96 C64.32 96 32.64 96 0 96 C0 64.32 0 32.64 0 0 Z " fill="#7A7E2D" transform="translate(0,0)"/>
<path d="M0 0 C31.68 0 63.36 0 96 0 C96 31.68 96 63.36 96 96 C64.32 96 32.64 96 0 96 C0 64.32 0 32.64 0 0 Z M21 16 C19.7625 16.92232422 19.7625 16.92232422 18.5 17.86328125 C10.90685148 24.35305038 6.46953782 34.11316953 5.6875 43.91796875 C5.12002328 57.92626603 8.33997205 69.58017171 17.9296875 80.12109375 C27.63463301 89.52387062 39.24369041 93.4123523 52.51953125 93.27734375 C64.39362603 92.33114765 74.35912355 86.35613145 82.4375 77.84765625 C90.99056164 67.73366086 93.98143403 56.09768322 93 43 C90.76887549 31.22950062 84.24045218 20.36027025 74.578125 13.20703125 C72.10546647 11.65202084 69.61925979 10.29100957 67 9 C66.33871094 8.6596875 65.67742187 8.319375 64.99609375 7.96875 C50.15364278 1.69483726 32.81924216 6.02595598 21 16 Z " fill="#78B5D1" transform="translate(96,0)"/>
<path d="M0 0 C0.10957031 0.80824219 0.21914063 1.61648437 0.33203125 2.44921875 C0.49058594 3.51785156 0.64914063 4.58648437 0.8125 5.6875 C0.96332031 6.74324219 1.11414062 7.79898438 1.26953125 8.88671875 C2.48182687 14.05356157 4.75247104 17.0802448 8.875 20.3125 C13.33080873 24.11062478 17.24594494 28.14996886 18.40625 34.07421875 C18.61912034 38.73075734 17.36319255 42.06134576 15 46 C14.34 46 13.68 46 13 46 C13.165 45.319375 13.33 44.63875 13.5 43.9375 C14.5733609 37.63150471 14.24691679 33.54334725 11 28 C9.23169573 26.10386651 7.39339285 24.27123847 5.5 22.5 C1.66175805 18.90938656 -1.00756723 15.90030763 -3 11 C-3 10.01 -3 9.02 -3 8 C-3.66 8 -4.32 8 -5 8 C-7.23295166 15.95148641 -6.16766173 22.29534461 -2.90625 29.75 C-1.70341619 32.73634601 -1.42290218 34.82596197 -2 38 C-3.61811112 40.97732447 -5.40271598 43.39749953 -7.7890625 45.8046875 C-12.08201347 50.20363726 -14.01724627 53.37051704 -14.19921875 59.60546875 C-13.77468456 64.70820318 -12.23732638 67.79360678 -8.5 71.4375 C-2.77045301 73.99533348 3.11272209 74.08272922 9 71.875 C12.38287125 68.70355821 13.77239821 65.56069798 14.4375 61 C13.78333612 56.51430485 11.80755711 53.37125022 8.1875 50.625 C4.94376185 49.69821767 2.35738508 49.64659104 -1 50 C-3.75329021 51.79562405 -5.52627461 53.05254922 -7 56 C-7.38503376 59.54231061 -7.41935959 61.36257342 -5.4375 64.375 C-2.14933906 66.56710729 0.12575435 66.35872645 4 66 C4.66 65.67 5.32 65.34 6 65 C6 62.69 6 60.38 6 58 C4.35 57.67 2.7 57.34 1 57 C0.67 57.99 0.34 58.98 0 60 C0.99 60.33 1.98 60.66 3 61 C2.67 61.99 2.34 62.98 2 64 C-2.875 63.125 -2.875 63.125 -4 62 C-4.45232816 56.79822616 -4.45232816 56.79822616 -2.9375 54.125 C0.19922133 52.30367794 2.45300373 52.51075913 6 53 C9.34729173 55.42144508 10.76049116 56.87430846 11.625 60.9375 C10.75740301 65.18872524 9.02301293 66.90501057 6 70 C2.79745853 71.60127074 0.54685436 71.40701607 -3 71 C-6.27365512 68.90150313 -9.24483773 66.51032454 -11 63 C-11.67085641 58.20816851 -11.53504197 54.91474917 -9.0625 50.6875 C-6.18842252 47.6974655 -2.72263467 46.3058952 1.109375 44.859375 C3.18448 44.15537187 3.18448 44.15537187 4 42 C5.04124164 34.84146372 2.65095321 31.51899385 -1.375 25.69921875 C-3.60261525 21.99902131 -3.9194562 19.26882117 -4 15 C-1.51033705 18.23656183 0.73547848 21.60321771 3 25 C3.67675781 25.76957031 3.67675781 25.76957031 4.3671875 26.5546875 C8.20746183 31.08924872 8.48646444 34.68044091 8.2734375 40.546875 C8 43 8 43 7 46 C7.94875 46.45375 8.8975 46.9075 9.875 47.375 C13 49 13 49 15 51 C15.24234375 50.40832031 15.4846875 49.81664062 15.734375 49.20703125 C18.87361459 41.80567021 21.68141886 37.31562701 29 33.69921875 C31 33 31 33 35 33 C34.835 33.61875 34.67 34.2375 34.5 34.875 C33.24257567 42.73390207 33.90443429 48.34261967 37.09375 55.62109375 C38.71167155 59.86813782 38.90466116 63.59079542 37.26953125 67.9453125 C35.25434254 71.87698679 33.0920269 74.32121973 29 76 C27.515 75.505 27.515 75.505 26 75 C26.94875 74.278125 27.8975 73.55625 28.875 72.8125 C32.78026301 69.52434223 33.78933713 66.82574491 34.375 61.75 C34.02787357 58.27873573 33.51310542 56.75474836 32 53.75 C29.43849447 48.5277757 29.61590208 43.70812193 30 38 C24.38069207 41.19278859 21.44888767 44.49878898 19.4140625 50.8203125 C18.87231021 53.67217834 18.80577658 56.47553405 18.6875 59.375 C18.30649569 64.69120075 17.65817158 67.92375166 14 72 C13.360625 72.7425 12.72125 73.485 12.0625 74.25 C7.89228309 77.78836586 3.76256044 78.51293974 -1.58984375 78.37890625 C-6.56465939 77.59680395 -11.02898513 75.17191721 -14.41796875 71.4375 C-18.44335388 65.62466948 -18.5956246 59.83975584 -18 53 C-17.505 52.05125 -17.01 51.1025 -16.5 50.125 C-14.00970659 44.93688872 -14.26346118 39.63761958 -15 34 C-17.01754269 28.72782054 -20.35524089 25.18497768 -25 22 C-24.67 22.66 -24.34 23.32 -24 24 C-22.60646656 33.84293242 -26.10619052 40.86430022 -31.2890625 49.03125 C-34.10532312 53.48864091 -34.83872272 56.86661272 -34 62 C-32.23469206 67.29592383 -30.13200309 71.43399845 -25 74 C-25 74.66 -25 75.32 -25 76 C-28.23065787 75.40225713 -30.13425417 74.37865503 -32.625 72.25 C-33.21539062 71.76015625 -33.80578125 71.2703125 -34.4140625 70.765625 C-38.27084548 66.47186661 -38.54250791 61.50694791 -38.453125 55.97265625 C-37.64297946 50.65782214 -34.81694778 46.49337524 -32 42 C-27.92374564 35.30506102 -26.82419393 29.59006106 -28.4609375 21.80859375 C-28.9128923 20.18745153 -29.44711187 18.58955338 -30 17 C-23.97987236 17.30100638 -20.25295719 19.98331821 -16 24 C-11.21269561 29.50657919 -10.16178295 34.82272001 -10 42 C-9.34 42 -8.68 42 -8 42 C-5.96929221 35.90787662 -6.63273403 31.72657675 -9.3125 26.109375 C-11.11605454 20.57574176 -11.17247334 13.88850713 -8.98046875 8.48828125 C-3.7870841 0 -3.7870841 0 0 0 Z " fill="#741B0D" transform="translate(48,101)"/>
<path d="M0 0 C1.50438931 -0.01654423 3.0087005 -0.04381485 4.51269531 -0.08203125 C6.68685471 -0.13696442 8.85917452 -0.15869604 11.03393555 -0.17333984 C12.33564697 -0.19315918 13.6373584 -0.21297852 14.97851562 -0.23339844 C19.37840365 0.50574069 20.73916309 1.86921946 23.4519043 5.35009766 C24.70288086 7.81591797 24.70288086 7.81591797 25.5925293 10.42822266 C25.93670898 11.41274414 26.28088867 12.39726562 26.63549805 13.41162109 C27.16336914 14.98991699 27.16336914 14.98991699 27.7019043 16.60009766 C28.47738954 18.83987372 29.25344886 21.07945109 30.0300293 23.31884766 C30.62267578 25.04941406 30.62267578 25.04941406 31.22729492 26.81494141 C33.60239982 33.67130483 36.12327154 40.47604925 38.62084961 47.28857422 C39.15597168 48.76535645 39.15597168 48.76535645 39.7019043 50.27197266 C40.01643555 51.1340332 40.3309668 51.99609375 40.6550293 52.88427734 C42.3423654 58.10550732 42.63446522 63.07992186 42.6394043 68.53759766 C42.65165039 69.26140625 42.66389648 69.98521484 42.67651367 70.73095703 C42.68174493 72.60549236 42.57439226 74.47956116 42.4519043 76.35009766 C39.92605823 78.87594373 38.35983937 78.58714089 34.91465759 78.6023407 C34.16253494 78.59515518 33.41041229 78.58796967 32.63549805 78.58056641 C31.86383804 78.58010818 31.09217804 78.57964996 30.2971344 78.57917786 C28.66552188 78.57615553 27.03391224 78.56826979 25.40234375 78.5559082 C22.8959743 78.53764553 20.38997397 78.53539854 17.88354492 78.53564453 C16.30085942 78.53072964 14.71817643 78.52490144 13.13549805 78.51806641 C12.00427773 78.51639717 12.00427773 78.51639717 10.85020447 78.51469421 C5.56795549 78.46614885 5.56795549 78.46614885 4.4519043 77.35009766 C4.35330298 75.9466103 4.32111493 74.53829288 4.3190918 73.13134766 C4.31780273 72.28185547 4.31651367 71.43236328 4.31518555 70.55712891 C4.31905273 69.66380859 4.32291992 68.77048828 4.3269043 67.85009766 C4.32110352 66.51011719 4.32110352 66.51011719 4.31518555 65.14306641 C4.31647461 64.29357422 4.31776367 63.44408203 4.3190918 62.56884766 C4.32021973 61.78445312 4.32134766 61.00005859 4.32250977 60.19189453 C4.4519043 58.35009766 4.4519043 58.35009766 5.4519043 57.35009766 C7.45155412 57.26251763 9.45426539 57.24313189 11.45581055 57.25244141 C12.67075195 57.25566406 13.88569336 57.25888672 15.13745117 57.26220703 C16.4168457 57.27058594 17.69624023 57.27896484 19.0144043 57.28759766 C20.29766602 57.29210937 21.58092773 57.29662109 22.90307617 57.30126953 C26.08606452 57.3131022 29.26896192 57.32958697 32.4519043 57.35009766 C32.4519043 58.34009766 32.4519043 59.33009766 32.4519043 60.35009766 C24.2019043 60.35009766 15.9519043 60.35009766 7.4519043 60.35009766 C7.4519043 62.33009766 7.4519043 64.31009766 7.4519043 66.35009766 C16.3619043 66.35009766 25.2719043 66.35009766 34.4519043 66.35009766 C34.4519043 67.34009766 34.4519043 68.33009766 34.4519043 69.35009766 C25.5419043 69.35009766 16.6319043 69.35009766 7.4519043 69.35009766 C7.4519043 71.33009766 7.4519043 73.31009766 7.4519043 75.35009766 C22.7969043 74.85509766 22.7969043 74.85509766 38.4519043 74.35009766 C38.69198555 62.26528665 38.69198555 62.26528665 35.8190918 51.48681641 C35.54477325 50.72569046 35.27045471 49.96456451 34.98782349 49.18037415 C34.12155649 46.79123283 33.22543769 44.41476422 32.3269043 42.03759766 C31.74930357 40.4634895 31.17377325 38.88862005 30.6003418 37.31298828 C29.46507031 34.20008079 28.3161844 31.09271453 27.15795898 27.98828125 C25.98460132 24.82661782 24.85341539 21.65383068 23.75366211 18.46582031 C23.48304962 17.683022 23.21243713 16.90022369 22.93362427 16.09370422 C22.42128056 14.60400262 21.91361431 13.11268151 21.41134644 11.61955261 C20.04458143 7.62641755 20.04458143 7.62641755 17.4519043 4.35009766 C13.19516205 3.92849772 8.92366005 3.9785029 4.6484375 3.97949219 C2.52546896 3.97512044 0.40458262 3.93881327 -1.71801758 3.90087891 C-3.06631776 3.89501033 -4.41462782 3.89104121 -5.76293945 3.88916016 C-6.99133545 3.88094238 -8.21973145 3.87272461 -9.48535156 3.86425781 C-12.53818483 4.070754 -12.53818483 4.070754 -14.28710938 5.86572266 C-16.04065082 9.32052183 -17.29710862 12.89142143 -18.5090332 16.56103516 C-18.78147858 17.36562164 -19.05392395 18.17020813 -19.33462524 18.99917603 C-20.20438121 21.57220796 -21.0640588 24.14846955 -21.9230957 26.72509766 C-22.77421521 29.25666985 -23.62741302 31.78752662 -24.48199463 34.31793213 C-25.0415532 35.97960344 -25.59750642 37.6424932 -26.14984131 39.30657959 C-27.37432234 42.97873926 -28.625021 46.61729189 -30.07641602 50.20654297 C-33.68743929 59.3142613 -33.5480957 63.67215948 -33.5480957 74.35009766 C-23.3180957 74.68009766 -13.0880957 75.01009766 -2.5480957 75.35009766 C-2.5480957 73.37009766 -2.5480957 71.39009766 -2.5480957 69.35009766 C-11.4580957 69.35009766 -20.3680957 69.35009766 -29.5480957 69.35009766 C-29.5480957 68.36009766 -29.5480957 67.37009766 -29.5480957 66.35009766 C-20.6380957 66.35009766 -11.7280957 66.35009766 -2.5480957 66.35009766 C-2.5480957 64.37009766 -2.5480957 62.39009766 -2.5480957 60.35009766 C-10.7980957 60.35009766 -19.0480957 60.35009766 -27.5480957 60.35009766 C-27.5480957 59.36009766 -27.5480957 58.37009766 -27.5480957 57.35009766 C-23.06894242 57.32123427 -18.58981279 57.30334578 -14.1105957 57.28759766 C-12.83120117 57.27921875 -11.55180664 57.27083984 -10.23364258 57.26220703 C-9.01870117 57.25898437 -7.80375977 57.25576172 -6.55200195 57.25244141 C-5.42608643 57.24720459 -4.3001709 57.24196777 -3.14013672 57.23657227 C-0.5480957 57.35009766 -0.5480957 57.35009766 0.4519043 58.35009766 C0.55050561 59.75358501 0.58269366 61.16190243 0.5847168 62.56884766 C0.58665039 63.84308594 0.58665039 63.84308594 0.58862305 65.14306641 C0.58475586 66.03638672 0.58088867 66.92970703 0.5769043 67.85009766 C0.58270508 69.19007812 0.58270508 69.19007812 0.58862305 70.55712891 C0.58733398 71.40662109 0.58604492 72.25611328 0.5847168 73.13134766 C0.58358887 73.91574219 0.58246094 74.70013672 0.58129883 75.50830078 C0.4519043 77.35009766 0.4519043 77.35009766 -0.5480957 78.35009766 C-3.11829055 78.46341859 -5.66061048 78.51427251 -8.23168945 78.51806641 C-9.38774437 78.52305901 -9.38774437 78.52305901 -10.56715393 78.52815247 C-12.20052492 78.53322476 -13.8339063 78.5355607 -15.46728516 78.53540039 C-17.9716087 78.53758545 -20.47549091 78.55573361 -22.97973633 78.57470703 C-24.56371919 78.57764113 -26.14770415 78.57962582 -27.73168945 78.58056641 C-28.4838121 78.58775192 -29.23593475 78.59493744 -30.010849 78.6023407 C-35.31927291 78.57892045 -35.31927291 78.57892045 -37.5480957 76.35009766 C-39.94998517 62.13814099 -34.86514943 49.34029627 -30.07739258 36.18041992 C-28.78991264 32.64009579 -27.5410575 29.08790865 -26.2980957 25.53173828 C-25.49298584 23.25817803 -24.68576936 20.98536242 -23.8762207 18.71337891 C-23.50313782 17.66024002 -23.13005493 16.60710114 -22.7456665 15.52204895 C-17.80204899 1.98807678 -14.23923099 0.11476997 0 0 Z " fill="#3A4F16" transform="translate(44.548095703125,9.64990234375)"/>
<path d="M0 0 C5.23534858 2.61767429 8.83257171 6.51825311 11 12 C11.71941989 19.23157132 11.36171313 24.5567165 8 31 C7.17753943 37.08809895 7.39940988 42.88728241 10.546875 48.2734375 C13.91223668 52.27206616 18.25037993 54.52967025 23.375 55.40625 C28.26744795 55.60459248 31.88778354 54.80378395 36 52 C40.48512227 47.44194891 42.05105477 44.33444447 42.3125 38 C42.83961448 30.56274419 44.32322099 24.12290885 49.25 18.375 C50.11625 17.694375 50.11625 17.694375 51 17 C51.66 17.33 52.32 17.66 53 18 C52.34 18.66 51.68 19.32 51 20 C51.34802628 21.90067117 51.34802628 21.90067117 52 24 C52.24370568 27.43440385 52.2310477 30.87028811 52.25 34.3125 C52.270625 35.23740234 52.29125 36.16230469 52.3125 37.11523438 C52.35337785 44.30462707 51.4714572 49.21168932 46.5625 54.75 C45.716875 55.4925 44.87125 56.235 44 57 C43.4225 57.53625 42.845 58.0725 42.25 58.625 C35.36848362 62.83037112 27.95228413 63.9884195 20 63 C11.49415726 60.88612192 4.52342474 56.01391309 -0.5 48.8125 C-3.51642317 42.72554742 -2.89625237 35.83919948 -0.90625 29.53515625 C-0.01178328 27.18198072 0.89706161 24.83421943 1.8203125 22.4921875 C3.54877351 17.37548505 3.89180358 12.37047667 4 7 C3.34 7 2.68 7 2 7 C1.67 7.66 1.34 8.32 1 9 C0.67 6.03 0.34 3.06 0 0 Z " fill="#AA422B" transform="translate(23,123)"/>
<path d="M0 0 C0.33 0 0.66 0 1 0 C1.08636719 0.60328125 1.17273438 1.2065625 1.26171875 1.828125 C1.94642135 5.72276364 2.5368627 8.40660533 5 11.5625 C9.32446828 13.63464105 13.28691658 13.32945826 18 13 C18.48919922 13.93972656 18.48919922 13.93972656 18.98828125 14.8984375 C19.42527344 15.71570312 19.86226562 16.53296875 20.3125 17.375 C20.74175781 18.18710937 21.17101562 18.99921875 21.61328125 19.8359375 C22.96778724 22.26834043 22.96778724 22.26834043 26 24 C28.97449608 24.24219315 28.97449608 24.24219315 32.1875 24.125 C33.27417969 24.10695313 34.36085937 24.08890625 35.48046875 24.0703125 C36.31191406 24.04710938 37.14335937 24.02390625 38 24 C38.20753906 24.67546875 38.41507813 25.3509375 38.62890625 26.046875 C40.69022805 32.22619988 40.69022805 32.22619988 45.1875 36.6875 C49.47761368 38.62497069 53.56746843 38.40280494 58 37 C61.1068002 34.92879987 62.56069986 33.43487385 63.66015625 29.84375 C64.37426649 25.68388451 64.41545393 23.68764789 62.1875 20 C59.63850512 17.66949039 58.60556042 17.08074139 55.1875 16.625 C51.84366725 16.76251791 51.84366725 16.76251791 49.0625 19.0625 C46.60504427 21.92317335 46.60504427 21.92317335 47.1875 25.8125 C47.455625 26.864375 47.72375 27.91625 48 29 C51.97754128 29.73334429 51.97754128 29.73334429 56 30 C56.33 28.35 56.66 26.7 57 25 C56.01 25 55.02 25 54 25 C53.505 26.485 53.505 26.485 53 28 C52.01 27.67 51.02 27.34 50 27 C49.8125 24.125 49.8125 24.125 50 21 C53 19 53 19 56.0625 19.1875 C59 20 59 20 61 23 C61.65364121 29.86323268 61.65364121 29.86323268 59.5625 33.5 C55.74320319 35.73568594 52.31640795 35.77078713 48 35 C44.393453 32.85141881 42.57316488 30.84473031 41 27 C40.64073926 22.95083206 41.14143806 19.34916876 43.33984375 15.89453125 C48.16855097 10.16855814 48.16855097 10.16855814 52.20703125 9.796875 C61.05792112 9.6376386 61.05792112 9.6376386 65 13 C70.01876595 18.71581678 70.35190219 22.27913446 70.27734375 29.79296875 C69.91852039 33.94217975 68.90360228 36.01998713 66 39 C59.8017556 43.68030699 54.64155556 45.03825483 47 44 C38.39175163 41.20689814 32.60700884 36.03419761 26.51171875 29.6171875 C19.55227907 22.36551629 10.79409149 16.60992412 0.5625 15.69140625 C-2.31104621 15.68801763 -5.13632378 15.7715152 -8 16 C-7.42070126 11.97387377 -6.14350034 9.19196689 -4 5.75 C-3.46375 4.87859375 -2.9275 4.0071875 -2.375 3.109375 C-1 1 -1 1 0 0 Z " fill="#75B1CE" transform="translate(115,22)"/>
<path d="M0 0 C7.1432348 3.73863548 12.86890101 9.85816573 18.640625 15.3828125 C25.48105614 21.75356615 31.86935354 26.40895395 41.484375 26.69921875 C46.69212435 26.48474259 50.61017728 25.27159594 55.359375 23.19921875 C56.349375 23.19921875 57.339375 23.19921875 58.359375 23.19921875 C52.64221272 33.18854625 52.64221272 33.18854625 47.53125 34.828125 C38.09060928 36.44118412 30.28814943 35.74806741 22.359375 30.19921875 C17.95251386 26.62253553 13.90952613 22.69204534 9.82421875 18.7578125 C0.40336376 9.91939059 -6.73537344 7.59814461 -19.640625 7.19921875 C-19.640625 4.88921875 -19.640625 2.57921875 -19.640625 0.19921875 C-14.41792282 -2.41213234 -5.49972566 -1.66781621 0 0 Z " fill="#76B3D0" transform="translate(124.640625,41.80078125)"/>
<path d="M0 0 C5.40670128 3.19800629 10.69401561 8.58204682 12.6875 14.5625 C11.553125 14.211875 10.41875 13.86125 9.25 13.5 C2.11290233 11.73151562 -3.97896734 12.82733971 -10.3125 16.5625 C-10.8075 15.758125 -11.3025 14.95375 -11.8125 14.125 C-14.73493537 11.12950375 -16.33504734 10.61805688 -20.40625 10.375 C-22.51407555 10.45041598 -22.51407555 10.45041598 -24.8125 12 C-26.97181811 15.68883511 -26.59485872 18.32711913 -26.3125 22.5625 C-24.0025 22.5625 -21.6925 22.5625 -19.3125 22.5625 C-18.6525 20.9125 -17.9925 19.2625 -17.3125 17.5625 C-18.3025 17.5625 -19.2925 17.5625 -20.3125 17.5625 C-20.3125 18.5525 -20.3125 19.5425 -20.3125 20.5625 C-21.6325 20.2325 -22.9525 19.9025 -24.3125 19.5625 C-23.5625 14.8125 -23.5625 14.8125 -21.3125 12.5625 C-18.60371826 12.77086783 -16.76804813 13.28917112 -14.4375 14.6875 C-13.3125 16.5625 -13.3125 16.5625 -13.375 20 C-14.39864514 23.88985154 -14.96703233 25.36153443 -18.3125 27.5625 C-22.57393432 28.18234499 -24.55638322 28.05561964 -28.1875 25.6875 C-31.11384249 22.76115751 -31.54337381 20.98236414 -31.75 16.9375 C-31.68460774 11.90229625 -30.42073991 9.08958765 -27.12890625 5.32421875 C-19.56830718 -2.00874938 -10.0951466 -4.30089086 0 0 Z " fill="#76B2CF" transform="translate(168.3125,16.4375)"/>
<path d="M0 0 C4.15945828 2.92487803 7.05807161 5.92421483 8.6875 10.8125 C9.21784284 17.0705455 8.51620005 21.69246325 4.6875 26.8125 C1.25483544 29.97837715 -2.25707043 31.06372265 -6.875 31.3125 C-11.31944175 31.08535647 -13.96513465 29.84106865 -17.3125 26.8125 C-19.95451025 22.76141762 -21.01486884 19.6287435 -20.3125 14.8125 C-18.27256092 11.1546782 -16.80830738 9.14303826 -13.3125 6.8125 C-8.54775349 5.9648391 -5.26175797 6.15383121 -1.25 8.9375 C1.04724648 12.34631736 1.44221928 13.78733052 0.6875 17.8125 C-1 20.6875 -1 20.6875 -3.3125 22.8125 C-6.30269342 23.39595238 -7.61679796 23.25311129 -10.1875 21.625 C-11.3125 19.8125 -11.3125 19.8125 -11 17.125 C-10.6596875 15.9803125 -10.6596875 15.9803125 -10.3125 14.8125 C-9.6525 14.8125 -8.9925 14.8125 -8.3125 14.8125 C-8.3125 16.1325 -8.3125 17.4525 -8.3125 18.8125 C-6.9925 18.4825 -5.6725 18.1525 -4.3125 17.8125 C-4.3125 15.8325 -4.3125 13.8525 -4.3125 11.8125 C-7.14133747 10.39808126 -9.18626745 10.49349668 -12.3125 10.8125 C-15.0696147 13.11009558 -15.29497267 14.69199963 -15.8125 18.25 C-15.55505422 21.89827113 -15.55505422 21.89827113 -13.375 24.8125 C-9.64879396 27.24594068 -7.75318566 27.29329237 -3.46875 26.5078125 C0.10263788 25.35616931 1.61424858 23.92237712 3.6875 20.8125 C5.15307539 16.10358026 5.21677801 12.91176971 3.0625 8.4375 C-0.96881583 3.98183513 -3.69586022 2.62396691 -9.6875 2.3125 C-14.34393765 2.45056149 -17.19407889 3.31690785 -20.875 6.1328125 C-25.92779454 12.03689308 -26.05515171 18.46599878 -25.78515625 25.82421875 C-25.11694867 33.721725 -20.65084871 38.82395124 -14.9375 43.9375 C-13.74069112 44.91018737 -12.53652324 45.87428929 -11.3125 46.8125 C-11.6425 47.4725 -11.9725 48.1325 -12.3125 48.8125 C-20.72524745 45.92812945 -24.37322477 40.4530278 -28.3125 32.8125 C-30.85471872 26.45695321 -31.53142574 19.23303449 -29.6953125 12.57421875 C-26.9084322 6.22358445 -21.7630077 1.8474148 -15.875 -1.625 C-10.04394526 -2.90498763 -5.2594108 -3.12032208 0 0 Z " fill="#B6630C" transform="translate(135.3125,116.1875)"/>
<path d="M0 0 C10.08094176 0.19461278 15.86592851 4.85710288 22.625 11.8125 C23.17865234 12.38943604 23.73230469 12.96637207 24.30273438 13.56079102 C28.50254013 17.91939725 32.73003051 21.44799579 38.0625 24.375 C39.114375 24.973125 40.16625 25.57125 41.25 26.1875 C47.08101082 28.00371648 52.98611265 28.13059607 59.0625 28.375 C54.43946993 33.54191596 51.06068804 35.13321064 44.1875 35.6875 C35.5651628 35.39299892 29.29367547 31.05304577 23.0625 25.375 C21.85038817 24.02164633 20.66179129 22.64678998 19.5 21.25 C12.85736672 13.42443203 6.11950577 11.49803231 -3.9375 10.375 C-4.29866046 8.8975254 -4.65125048 7.41795325 -5 5.9375 C-5.19722656 5.11378906 -5.39445312 4.29007813 -5.59765625 3.44140625 C-5.76587891 2.41853516 -5.76587891 2.41853516 -5.9375 1.375 C-4.26338146 -0.29911854 -2.29975375 0.08386199 0 0 Z " fill="#76B2CF" transform="translate(110.9375,51.625)"/>
<path d="M0 0 C5.59119758 3.27471139 9.9948399 7.88586463 12.4375 13.9375 C13.33222302 21.31376301 13.01752834 26.99584162 8.4375 32.9375 C5.9375 35.25 5.9375 35.25 3.4375 36.9375 C2.839375 37.35 2.24125 37.7625 1.625 38.1875 C-3.23958255 39.85535687 -7.46575312 39.27210074 -12.25 37.8125 C-16.60699098 35.34627869 -19.29335342 32.47579317 -21.5625 27.9375 C-22.12600726 23.31858804 -22.0047879 19.83908688 -19.9375 15.625 C-16.34252335 11.55700011 -13.52177251 9.21739607 -8.0625 8.4375 C-3.07938162 9.14937405 -0.24831543 11.30787842 3.3125 14.75 C5.01061732 18.05189479 4.94254176 20.27594727 4.4375 23.9375 C2.52310277 27.16804532 1.03721738 29.27310125 -2.5 30.7421875 C-4.73140445 31.22396801 -6.31671678 31.36225578 -8.5625 30.9375 C-11.17877742 29.1768992 -11.92255966 27.79417027 -13.5625 24.9375 C-13.48337652 21.45606674 -13.02895256 20.40395256 -10.5625 17.9375 C-7.9375 17.8125 -7.9375 17.8125 -5.5625 17.9375 C-5.2325 19.2575 -4.9025 20.5775 -4.5625 21.9375 C-5.8825 21.9375 -7.2025 21.9375 -8.5625 21.9375 C-8.5625 23.2575 -8.5625 24.5775 -8.5625 25.9375 C-5.64597826 26.10431109 -5.64597826 26.10431109 -2.5625 25.9375 C-0.19839512 24.00018472 -0.19839512 24.00018472 -0.25 20.5 C-0.24025603 17.0694752 -0.24025603 17.0694752 -1.8046875 15.24609375 C-4.59452851 13.16921211 -7.02111287 13.39764303 -10.3984375 13.53515625 C-12.79627258 13.81411364 -12.79627258 13.81411364 -15.125 15.875 C-17.06646109 20.01115624 -17.37783967 23.4449784 -16.5625 27.9375 C-14.49237161 31.41235838 -12.44615688 33.68102278 -8.5625 34.9375 C-3.70501692 35.46548729 -0.68226318 34.53474201 3.4375 31.9375 C7.48402493 27.56287845 8.8145001 24.14150574 8.71484375 18.12890625 C8.03553 12.76137083 5.6839811 8.96720178 1.5625 5.5625 C-5.48363162 1.89851156 -12.25890347 0.58057359 -20.06640625 2.578125 C-21.57254943 3.08430821 -23.07033255 3.61669066 -24.5546875 4.18359375 C-26.5384124 4.92845544 -28.49966414 5.46110517 -30.5625 5.9375 C-30.20264777 3.49050487 -29.96850876 2.27137522 -28.0234375 0.671875 C-19.30315957 -3.44331234 -8.8654325 -4.04435138 0 0 Z " fill="#B6640C" transform="translate(170.5625,108.0625)"/>
<path d="M0 0 C5.44178453 2.47353842 7.62639016 5.70502421 10 11 C10.76183234 15.57099405 9.66955427 18.62715306 7.265625 22.453125 C4.48901469 25.84675982 1.18682264 26.80219623 -3 27.5 C-7.26096064 26.78983989 -8.92314769 25.0052976 -12 22 C-13.56935594 18.86128812 -13.35201103 16.46144178 -13 13 C-10.875 10.0625 -10.875 10.0625 -8 8 C-4.70930929 7.47348949 -2.95948739 7.39232466 -0.125 9.1875 C1.38332602 11.61758081 1.36023622 13.19015752 1 16 C0.34 16.66 -0.32 17.32 -1 18 C-1.99 18 -2.98 18 -4 18 C-4 17.01 -4 16.02 -4 15 C-3.34 15 -2.68 15 -2 15 C-2.33 14.01 -2.66 13.02 -3 12 C-6.29075996 12.37904208 -6.29075996 12.37904208 -9 14 C-8.74751373 17.51745287 -8.74751373 17.51745287 -8 21 C-4.90826248 22.54586876 -2.40570448 22.29359521 1 22 C3.60314994 20.6469872 3.60314994 20.6469872 5 18 C5.60618886 13.22626273 5.71591834 11.16028144 3.1875 7.0625 C0.36713048 4.40329446 -1.47787644 4.04925694 -5.3125 3.6875 C-9.7020258 4.05949371 -11.64776343 5.19347636 -15 8 C-17.75788951 12.42391832 -17.64703394 16.94354959 -17 22 C-14.76544883 26.5518635 -12.48228545 28.74597714 -8 31 C-1.61182975 31.97805089 4.63444629 31.66475916 10.2578125 28.31640625 C17.55432242 22.80312409 21.42318888 14.85369443 22.75 5.875 C22.8325 4.92625 22.915 3.9775 23 3 C23.99 3.33 24.98 3.66 26 4 C26.67137351 11.55295199 24.53059879 18.32167388 20.234375 24.56640625 C14.75293924 31.11607457 8.48715278 35.38666919 -0.1484375 36.203125 C-5.24507206 36.31042257 -8.58331689 35.81061652 -13 33 C-13.86625 32.46375 -14.7325 31.9275 -15.625 31.375 C-19.82855203 27.17144797 -21.6808527 22.27392449 -22.5 16.4375 C-21.64744412 10.57617831 -19.50536712 5.88707923 -14.9375 2 C-10.28218903 -0.95973434 -5.3148361 -0.85101605 0 0 Z " fill="#B7630C" transform="translate(151,147)"/>
<path d="M0 0 C4.94617794 3.40736703 9.32353126 7.98162505 10.8125 13.9375 C11.51767576 20.04902323 10.02486298 24.79211627 6.8125 29.9375 C3.19993239 33.87027246 -0.15114728 36.68608226 -5.640625 37.140625 C-11.66390428 37.24157381 -15.85392731 36.7820721 -21.1875 33.9375 C-21.1875 33.2775 -21.1875 32.6175 -21.1875 31.9375 C-20.383125 32.2675 -19.57875 32.5975 -18.75 32.9375 C-12.73875196 34.62486787 -7.55578925 34.86910932 -1.8125 32.1875 C2.38180771 29.82768075 4.28481074 27.52056779 5.8125 22.9375 C5.95609334 21.12877624 6.03296121 19.31417423 6.0625 17.5 C6.08828125 16.55253906 6.1140625 15.60507812 6.140625 14.62890625 C5.76206852 11.52384182 4.78396538 10.29807039 2.8125 7.9375 C2.8125 7.2775 2.8125 6.6175 2.8125 5.9375 C-2.44310494 3.80684935 -6.4318125 2.44972987 -12.1875 2.9375 C-16.49689118 5.1750685 -19.48362034 7.32700208 -21.1875 11.9375 C-21.44875489 16.8063412 -21.18612718 20.62680183 -18.1875 24.5625 C-14.09096161 26.4400801 -10.61883492 26.74770676 -6.1875 25.9375 C-3.49611457 24.49735074 -3.49611457 24.49735074 -2.1875 21.9375 C-1.73007723 18.73554064 -1.63281955 16.86196741 -3.3125 14.0625 C-5.96784983 12.4692901 -8.15539518 12.73535968 -11.1875 12.9375 C-11.93707157 16.40897842 -11.93707157 16.40897842 -12.1875 19.9375 C-11.1975 19.9375 -10.2075 19.9375 -9.1875 19.9375 C-8.8575 18.6175 -8.5275 17.2975 -8.1875 15.9375 C-7.5275 15.9375 -6.8675 15.9375 -6.1875 15.9375 C-6.1875 17.9175 -6.1875 19.8975 -6.1875 21.9375 C-12.56176409 23.26046047 -12.56176409 23.26046047 -15.125 21.9375 C-16.79541865 18.79318254 -16.61630369 16.42918717 -16.1875 12.9375 C-14.75 10.5 -14.75 10.5 -12.1875 8.9375 C-7.44989569 8.00058572 -4.23140888 8.27706785 -0.125 10.875 C2.1091047 14.40632678 2.59244648 16.52917765 2.37890625 20.6484375 C1.39042084 24.64328199 -1.13742835 27.28251535 -4.1875 29.9375 C-7.72348072 31.70549036 -11.33684695 31.58641768 -15.1875 30.9375 C-19.16524512 28.92499058 -22.21358437 26.39837345 -24.6875 22.6875 C-25.7382465 16.90839428 -26.17298533 11.90847066 -23.5 6.5625 C-16.96710281 -0.85322114 -9.53495328 -3.17831776 0 0 Z " fill="#3D5117" transform="translate(55.1875,22.0625)"/>
<path d="M0 0 C0.66 0.33 1.32 0.66 2 1 C4.26816066 7.80448198 3.45092777 13.53963554 0.5 20 C-2.38536969 26.43849636 -3.51306096 31.65515522 -1.1484375 38.4453125 C1.63127688 44.17492786 5.27509111 47.31719751 11 50 C19.05048454 52.68349485 28.38409767 51.75252666 36.0078125 48.203125 C40.43773921 45.52779671 42.50386488 41.8187209 44 37 C44.20972687 33.16717215 43.99711594 29.33791223 43.83398438 25.50585938 C43.69010039 19.5272318 43.69010039 19.5272318 45.50390625 16.44140625 C45.99761719 15.96574219 46.49132812 15.49007812 47 15 C49.01367169 37.94147392 49.01367169 37.94147392 45 45 C42.5625 47.75 42.5625 47.75 40 50 C39.4225 50.53625 38.845 51.0725 38.25 51.625 C31.36848362 55.83037112 23.95228413 56.9884195 16 56 C7.49415726 53.88612192 0.52342474 49.01391309 -4.5 41.8125 C-7.51642317 35.72554742 -6.89625237 28.83919948 -4.90625 22.53515625 C-4.01178328 20.18198072 -3.10293839 17.83421943 -2.1796875 15.4921875 C-0.45122649 10.37548505 -0.10819642 5.37047667 0 0 Z " fill="#751C0E" transform="translate(27,130)"/>
<path d="M0 0 C1.91232422 -0.02126953 1.91232422 -0.02126953 3.86328125 -0.04296875 C7.85325384 0.19748925 10.91288569 0.9520829 14.6875 2.1875 C14.6875 2.5175 14.6875 2.8475 14.6875 3.1875 C12.769375 3.249375 12.769375 3.249375 10.8125 3.3125 C4.93248636 3.94616233 0.34770308 6.64609804 -4.3125 10.1875 C-5.3025 11.6725 -5.3025 11.6725 -6.3125 13.1875 C-6.9725 13.1875 -7.6325 13.1875 -8.3125 13.1875 C-8.89 12.5275 -9.4675 11.8675 -10.0625 11.1875 C-12.20117283 8.91591065 -12.20117283 8.91591065 -15.375 8.75 C-18.24851372 8.9865184 -18.24851372 8.9865184 -20.1875 10.3125 C-21.81781294 13.02968824 -21.64265665 15.08402746 -21.3125 18.1875 C-20.6525 18.8475 -19.9925 19.5075 -19.3125 20.1875 C-16.70969432 19.86708603 -16.70969432 19.86708603 -14.3125 19.1875 C-13.9825 17.8675 -13.6525 16.5475 -13.3125 15.1875 C-14.3025 15.1875 -15.2925 15.1875 -16.3125 15.1875 C-16.3125 15.8475 -16.3125 16.5075 -16.3125 17.1875 C-17.3025 17.1875 -18.2925 17.1875 -19.3125 17.1875 C-18.9825 15.5375 -18.6525 13.8875 -18.3125 12.1875 C-16 11.5 -16 11.5 -13.3125 11.1875 C-11.5 12.25 -11.5 12.25 -10.3125 14.1875 C-9.77181438 17.81781776 -9.84870159 19.50964079 -11.9375 22.5625 C-15.06261169 24.70073431 -16.59412465 24.8704669 -20.3125 24.1875 C-23.16522289 22.20299712 -24.95517017 20.7286791 -25.76171875 17.25 C-25.95177092 13.78973986 -25.52559459 11.60400306 -23.9375 8.5 C-16.87295829 2.27647516 -9.21918645 0.04632757 0 0 Z " fill="#73AECC" transform="translate(144.3125,8.8125)"/>
<path d="M0 0 C8.24815511 0.0381859 12.63126482 2.66620255 18.40429688 8.39306641 C22.5825491 12.61299361 22.5825491 12.61299361 24.5246582 14.68481445 C28.02326346 18.33443016 31.51353028 20.65874614 36 23 C36 23.33 36 23.66 36 24 C26.22392271 24.63071466 18.60756719 21.9125641 10.95703125 15.7734375 C0.82222794 6.58940416 0.82222794 6.58940416 0 0 Z " fill="#76B2CF" transform="translate(109,65)"/>
<path d="M0 0 C0.66 0.33 1.32 0.66 2 1 C1.34 1.66 0.68 2.32 0 3 C0.3185177 5.10820797 0.3185177 5.10820797 1 7 C-0.65 6.67 -2.3 6.34 -4 6 C-2.84826645 3.53199953 -1.95216435 1.95216435 0 0 Z " fill="#A33C26" transform="translate(74,140)"/>
</svg>
